<svg width="40" height="40" viewBox="0 0 40 40" fill="none" xmlns="http://www.w3.org/2000/svg">
<circle cx="20" cy="20" r="20" fill="#111111"/>
<path d="M25.3061 20.6218C25.2792 18.9912 25.9843 17.722 27.4193 16.8138C26.6102 15.6384 25.4168 14.9777 23.8385 14.8301C23.2772 14.7773 22.5597 14.9098 21.6866 15.2309C20.7472 15.5789 20.2184 15.7518 20.1016 15.7518C19.8538 15.7518 19.3779 15.6059 18.6722 15.3112C17.9682 15.017 17.3681 14.8705 16.8725 14.8705C16.0376 14.884 15.2611 15.1147 14.5441 15.5621C13.8266 16.01 13.253 16.6213 12.8231 17.3953C12.2736 18.3569 12 19.5059 12 20.8418C12 22.0442 12.2017 23.246 12.6063 24.4495C12.9844 25.5985 13.4676 26.6072 14.0542 27.4744C14.5756 28.2631 15.0335 28.8373 15.424 29.1988C15.9853 29.7595 16.559 30.0273 17.1467 29.9998C17.5248 29.9863 18.0198 29.846 18.6334 29.5782C19.2071 29.3256 19.7813 29.1988 20.3555 29.1988C20.8899 29.1988 21.4439 29.3251 22.0187 29.5782C22.6575 29.846 23.1795 29.9796 23.584 29.9796C24.1841 29.9532 24.7448 29.6927 25.2674 29.1993C25.4494 29.0382 25.6483 28.8182 25.8635 28.5375C26.0787 28.2563 26.3169 27.9223 26.5782 27.5356C26.7603 27.2555 26.9395 26.9546 27.1165 26.6336C27.2929 26.313 27.4525 25.9729 27.5958 25.6114C27.6604 25.4643 27.7188 25.3144 27.7716 25.1606C27.8233 25.0074 27.8756 24.8508 27.9278 24.6903C27.4452 24.477 27.008 24.175 26.617 23.7877C25.7573 22.9339 25.3202 21.878 25.3067 20.6224L25.3061 20.6218Z" fill="white"/>
<path d="M22.8403 13.2068C23.5319 12.3385 23.878 11.4033 23.878 10.4008V10.201C23.878 10.1336 23.8713 10.0674 23.8584 10C23.3757 10.0269 22.8639 10.1807 22.3222 10.4608C21.7811 10.7421 21.3345 11.0963 20.9816 11.5234C20.2776 12.3654 19.9253 13.2669 19.9253 14.229V14.4187C19.9253 14.4793 19.932 14.5428 19.945 14.6101C21.0282 14.7168 21.9935 14.2492 22.8408 13.2074L22.8403 13.2068Z" fill="white"/>
</svg>
