<svg width="40" height="40" viewBox="0 0 40 40" fill="none" xmlns="http://www.w3.org/2000/svg">
<circle cx="20" cy="20" r="19.5" fill="#F9F9F9" stroke="#F6F6F6"/>
<path fill-rule="evenodd" clip-rule="evenodd" d="M29.999 20.227C29.999 19.5177 29.9337 18.8366 29.8135 18.1818H20.2038V22.0499H25.6955C25.459 23.3 24.74 24.3589 23.6595 25.0683V27.577H26.9576C28.8869 25.8361 30 23.2727 30 20.227H29.999Z" fill="#4285F4"/>
<path fill-rule="evenodd" clip-rule="evenodd" d="M20.2038 30C22.9588 30 25.2687 29.1041 26.9566 27.577L23.6586 25.0683C22.7444 25.6684 21.5765 26.0226 20.2028 26.0226C17.5449 26.0226 15.2956 24.2638 14.4929 21.9001H11.0853V24.4908C12.7646 27.7588 16.2146 30 20.2038 30Z" fill="#34A853"/>
<path fill-rule="evenodd" clip-rule="evenodd" d="M14.4939 21.9001C14.2901 21.3 14.1738 20.6594 14.1738 20C14.1738 19.3406 14.2901 18.7 14.4939 18.0999V15.5092H11.0853C10.3941 16.8592 10 18.3862 10 20C10 21.6138 10.3941 23.1408 11.0853 24.4908L14.4939 21.9001Z" fill="#FBBC05"/>
<path fill-rule="evenodd" clip-rule="evenodd" d="M20.2038 13.9774C21.7014 13.9774 23.0472 14.4823 24.1046 15.4724L27.0316 12.6039C25.2639 10.9911 22.954 10 20.2038 10C16.2146 10 12.7646 12.2412 11.0853 15.5092L14.4939 18.0999C15.2965 15.7362 17.5459 13.9774 20.2038 13.9774Z" fill="#EA4335"/>
</svg>
